<?xml version="1.0" standalone="no"?>
<!DOCTYPE svg PUBLIC "-//W3C//DTD SVG 20010904//EN"
 "http://www.w3.org/TR/2001/REC-SVG-20010904/DTD/svg10.dtd">
<svg version="1.0" xmlns="http://www.w3.org/2000/svg"
 width="626.000000pt" height="626.000000pt" viewBox="0 0 626.000000 626.000000"
 preserveAspectRatio="xMidYMid meet">
<metadata>
Created by potrace 1.14, written by Peter Selinger 2001-2017
</metadata>
<g transform="translate(0.000000,626.000000) scale(0.100000,-0.100000)"
fill="#000000" stroke="none">
<path d="M225 6248 c-98 -36 -173 -110 -206 -203 -19 -54 -19 -110 -17 -2932
l3 -2878 24 -48 c13 -27 34 -61 47 -76 25 -31 95 -81 116 -85 7 -1 20 -6 28
-11 10 -7 1048 -11 2885 -12 3129 -3 2931 -7 3017 53 45 31 86 81 114 139 19
39 19 95 19 2935 l0 2895 -22 47 c-27 58 -97 129 -160 160 l-48 23 -2885 2
c-2057 1 -2894 -2 -2915 -9z"/>
</g>
</svg>
